<?xml version="1.0" encoding="UTF-8"?>
<svg width="100" height="100" viewBox="0 0 100 100" xmlns="http://www.w3.org/2000/svg">
  <style>
    @keyframes float {
      0%, 100% { transform: translateY(0); }
      50% { transform: translateY(-3px); }
    }
    @keyframes glow {
      0%, 100% { fill: #98FB98; }
      50% { fill: #7CCD7C; }
    }
    @keyframes antennaWave {
      0%, 100% { transform: rotate(0deg); }
      25% { transform: rotate(-15deg); }
      75% { transform: rotate(15deg); }
    }
    .alien-head { animation: float 3s ease-in-out infinite; }
    .alien-eye { animation: glow 2s infinite; }
    .antenna { animation: antennaWave 4s infinite; }
  </style>
  
  <g class="alien-head">
    <!-- Alien head -->
    <path d="M50 15 C20 15 10 40 10 60 C10 80 30 90 50 90 C70 90 90 80 90 60 C90 40 80 15 50 15" fill="#90EE90"/>
    
    <!-- Large eyes -->
    <ellipse class="alien-eye" cx="35" cy="45" rx="15" ry="10"/>
    <ellipse class="alien-eye" cx="65" cy="45" rx="15" ry="10"/>
    
    <!-- Pupils -->
    <circle cx="35" cy="45" r="5" fill="black"/>
    <circle cx="65" cy="45" r="5" fill="black"/>
    <circle cx="37" cy="43" r="2" fill="white"/>
    <circle cx="67" cy="43" r="2" fill="white"/>
    
    <!-- Antennae -->
    <path class="antenna" d="M40 20 C30 10 20 15 15 5" stroke="#90EE90" stroke-width="3" fill="none" transform-origin="40 20"/>
    <path class="antenna" d="M60 20 C70 10 80 15 85 5" stroke="#90EE90" stroke-width="3" fill="none" transform-origin="60 20"/>
    <circle cx="15" cy="5" r="3" fill="#98FB98"/>
    <circle cx="85" cy="5" r="3" fill="#98FB98"/>
    
    <!-- Small mouth -->
    <path d="M45 65 C50 70 55 70 60 65" stroke="black" stroke-width="2" fill="none"/>
  </g>
</svg> 