<?xml version="1.0" encoding="UTF-8"?>
<svg width="100" height="100" viewBox="0 0 100 100" xmlns="http://www.w3.org/2000/svg">
  <style>
    @keyframes earWiggle {
      0%, 100% { transform: rotate(0deg); }
      50% { transform: rotate(5deg); }
    }
    @keyframes blinkEyes {
      0%, 95%, 100% { transform: scaleY(1); }
      97% { transform: scaleY(0.1); }
    }
    .ear { animation: earWiggle 2s infinite; }
    .eye { animation: blinkEyes 4s infinite; }
  </style>
  
  <circle cx="50" cy="50" r="45" fill="#FFE4B5"/>
  <!-- Cat ears -->
  <path class="ear" d="M30 25 L20 10 L40 20 Z" fill="#FFE4B5" transform-origin="30 25"/>
  <path class="ear" d="M70 25 L80 10 L60 20 Z" fill="#FFE4B5" transform-origin="70 25"/>
  
  <!-- Eyes with animation -->
  <g class="eye">
    <circle cx="35" cy="40" r="5" fill="#333"/>
    <circle cx="65" cy="40" r="5" fill="#333"/>
    <circle cx="33" cy="38" r="2" fill="white"/>
    <circle cx="63" cy="38" r="2" fill="white"/>
  </g>
  
  <!-- Whiskers -->
  <path d="M25 50 L10 45" stroke="#333" stroke-width="1"/>
  <path d="M25 55 L10 55" stroke="#333" stroke-width="1"/>
  <path d="M25 60 L10 65" stroke="#333" stroke-width="1"/>
  
  <path d="M75 50 L90 45" stroke="#333" stroke-width="1"/>
  <path d="M75 55 L90 55" stroke="#333" stroke-width="1"/>
  <path d="M75 60 L90 65" stroke="#333" stroke-width="1"/>
  
  <!-- Nose and mouth -->
  <path d="M47 50 L53 50 L50 53 Z" fill="#FF9999"/>
  <path d="M50 53 Q50 60 45 58" stroke="#333" stroke-width="1" fill="none"/>
  <path d="M50 53 Q50 60 55 58" stroke="#333" stroke-width="1" fill="none"/>
</svg> 